<mxfile host="app.diagrams.net" modified="2024-05-30T01:56:57.291Z" agent="Mozilla/5.0 (Macintosh; Intel Mac OS X 10_15_7) AppleWebKit/537.36 (KHTML, like Gecko) Chrome/125.0.0.0 Safari/537.36" version="24.3.1" etag="X-buj658GZ_4ibb3jgpp" type="github">
  <diagram name="第 1 页" id="N6qwSsrIGEw7LBGT730W">
    <mxGraphModel>
      <root>
        <mxCell id="0" />
        <mxCell id="1" parent="0" />
      </root>
    </mxGraphModel>
  </diagram>
</mxfile>
